cover

Genre:Drama
Language:English
IMDb:http://www.imdb.com/title/tt1227170/
Source:DVD

General
Complete name :Passenger.Side.2009.DvDRip.H264.Feel-Free
Format : MPEG-4
Format profile : Base Media
Codec ID : mp42
File size : 776 MiB
Duration : 1h 25mn
Overall bit rate : 1 276 Kbps
Video #1
Codec ID : avc1
Codec ID/Info : Advanced Video Coding
Duration : 1h 25mn
Bit rate mode : Variable
Bit rate : 699 Kbps
Width : 720 pixels
Height : 384 pixels
Display aspect ratio : 1.875
Frame rate mode : Constant
Frame rate : 23.976 fps
Resolution : 24 bits
Colorimetry : 4:2:0
Scan type : Progressive
Bits/(Pixel*Frame) : 0.105
Stream size : 425 MiB (55%)
Audio #2
ID : 2
Format : AAC
Format/Info : Advanced Audio Codec
Format version : Version 4
Format profile : LC
Format settings, SBR : No
Codec ID : 40
Duration : 1h 25mn
Bit rate mode : Constant
Bit rate : 576 Kbps
Channel(s) : 6 channels
Channel positions : Front: L C R, Rear: L R, LFE
Sampling rate : 48.0 KHz
Resolution : 16 bits
Stream size : 349 MiB (45%)

Plot:
Two brothers spend the day driving around Los Angeles county looking for the meaning of their lives, or cheap street drugs, depending on who you happen to believe.

screens 
http://img12.imageshack.us/img12/7490/passengerside2009dvdrip.jpg 
http://img149.imageshack.us/img149/7490/passengerside2009dvdrip.jpg 
http://img29.imageshack.us/img29/7490/passengerside2009dvdrip.jpg